<svg xmlns="http://www.w3.org/2000/svg" width="1200" height="800" viewBox="0 0 1200 800" role="img" aria-label="Project showcase placeholder">
  <defs>
    <linearGradient id="bg" x1="0" y1="0" x2="1" y2="1">
      <stop offset="0" stop-color="#F3F4F6"/>
      <stop offset="0.55" stop-color="#FFFFFF"/>
      <stop offset="1" stop-color="#E5E7EB"/>
    </linearGradient>
    <linearGradient id="accent" x1="0" y1="1" x2="1" y2="0">
      <stop offset="0" stop-color="#2563EB"/>
      <stop offset="1" stop-color="#1E40AF"/>
    </linearGradient>
  </defs>
  <rect width="1200" height="800" rx="40" fill="url(#bg)"/>
  <rect x="80" y="90" width="1040" height="620" rx="28" fill="#FFFFFF"/>
  <rect x="120" y="140" width="460" height="20" rx="10" fill="#111827" opacity="0.88"/>
  <rect x="120" y="190" width="620" height="16" rx="8" fill="#6B7280" opacity="0.55"/>
  <rect x="120" y="230" width="540" height="16" rx="8" fill="#6B7280" opacity="0.45"/>
  <rect x="120" y="290" width="360" height="56" rx="18" fill="url(#accent)"/>
  <circle cx="950" cy="330" r="150" fill="#2563EB" opacity="0.12"/>
  <circle cx="890" cy="390" r="110" fill="#1E40AF" opacity="0.10"/>
  <rect x="120" y="420" width="920" height="220" rx="24" fill="#F9FAFB"/>
  <rect x="160" y="458" width="260" height="18" rx="9" fill="#111827" opacity="0.78"/>
  <rect x="160" y="496" width="560" height="14" rx="7" fill="#6B7280" opacity="0.50"/>
  <rect x="160" y="526" width="520" height="14" rx="7" fill="#6B7280" opacity="0.45"/>
  <rect x="160" y="566" width="210" height="44" rx="14" fill="#E5E7EB"/>
</svg>
