<svg xmlns="http://www.w3.org/2000/svg" width="1200" height="800" viewBox="0 0 1200 800" role="img" aria-label="Design system showcase placeholder">
  <defs>
    <linearGradient id="bg" x1="0" y1="1" x2="1" y2="0">
      <stop offset="0" stop-color="#F9FAFB"/>
      <stop offset="1" stop-color="#FFFFFF"/>
    </linearGradient>
  </defs>
  <rect width="1200" height="800" rx="40" fill="url(#bg)"/>
  <rect x="90" y="100" width="1020" height="600" rx="28" fill="#FFFFFF"/>
  <rect x="140" y="160" width="300" height="240" rx="24" fill="#F3F4F6"/>
  <rect x="160" y="190" width="220" height="18" rx="9" fill="#111827" opacity="0.82"/>
  <rect x="160" y="226" width="250" height="14" rx="7" fill="#6B7280" opacity="0.55"/>
  <rect x="160" y="256" width="210" height="14" rx="7" fill="#6B7280" opacity="0.45"/>
  <rect x="520" y="160" width="540" height="52" rx="18" fill="#2563EB"/>
  <rect x="520" y="236" width="540" height="164" rx="24" fill="#1F2937"/>
  <rect x="560" y="276" width="320" height="18" rx="9" fill="#FFFFFF" opacity="0.85"/>
  <rect x="560" y="312" width="420" height="14" rx="7" fill="#FFFFFF" opacity="0.55"/>
  <rect x="140" y="460" width="920" height="190" rx="24" fill="#F3F4F6"/>
  <circle cx="210" cy="555" r="46" fill="#FEE2E2"/>
  <circle cx="330" cy="555" r="46" fill="#D1FAE5"/>
  <circle cx="450" cy="555" r="46" fill="#FEF3C7"/>
  <circle cx="570" cy="555" r="46" fill="#2563EB"/>
  <circle cx="690" cy="555" r="46" fill="#1E40AF"/>
  <circle cx="810" cy="555" r="46" fill="#3B82F6"/>
</svg>
