<svg xmlns="http://www.w3.org/2000/svg" width="1200" height="800" viewBox="0 0 1200 800" role="img" aria-label="Project mockup placeholder">
  <defs>
    <linearGradient id="bg" x1="0" y1="0" x2="1" y2="1">
      <stop offset="0" stop-color="#FFFFFF"/>
      <stop offset="1" stop-color="#F3F4F6"/>
    </linearGradient>
  </defs>
  <rect width="1200" height="800" rx="40" fill="url(#bg)"/>
  <rect x="80" y="90" width="1040" height="620" rx="30" fill="#1F2937"/>
  <rect x="130" y="150" width="420" height="22" rx="11" fill="#FFFFFF" opacity="0.92"/>
  <rect x="130" y="200" width="520" height="16" rx="8" fill="#FFFFFF" opacity="0.55"/>
  <rect x="130" y="236" width="470" height="16" rx="8" fill="#FFFFFF" opacity="0.45"/>
  <rect x="130" y="300" width="220" height="54" rx="18" fill="#2563EB"/>
  <rect x="720" y="170" width="330" height="440" rx="26" fill="#111827" opacity="0.95"/>
  <circle cx="885" cy="260" r="72" fill="#3B82F6" opacity="0.35"/>
  <circle cx="950" cy="330" r="56" fill="#2563EB" opacity="0.35"/>
  <rect x="760" y="430" width="250" height="14" rx="7" fill="#FFFFFF" opacity="0.55"/>
  <rect x="760" y="462" width="210" height="14" rx="7" fill="#FFFFFF" opacity="0.45"/>
  <rect x="760" y="520" width="120" height="40" rx="14" fill="#FFFFFF" opacity="0.14"/>
</svg>
